<?xml version="1.0" encoding="utf-8"?>
<!-- Generator: Adobe Illustrator 27.5.0, SVG Export Plug-In . SVG Version: 6.00 Build 0)  -->
<svg version="1.1" xmlns="http://www.w3.org/2000/svg" xmlns:xlink="http://www.w3.org/1999/xlink" x="0px" y="0px"
	 viewBox="0 0 750 500" style="enable-background:new 0 0 750 500;" xml:space="preserve">
<g id="BACKGROUND">
	<rect style="fill:#FFFFFF;" width="750" height="500"/>
</g>
<g id="OBJECTS" xmlns:serif="http://www.serif.com/">
	<g>
		<ellipse style="fill:#BFC6D8;" cx="397.183" cy="437.814" rx="83.46" ry="7.56"/>
		<g>
			<path style="fill:#F4FDFF;" d="M364.507,136.695l42.948,0.593l5.746,113.445c-25.053,1.743-45.384,2.169-58.455,0.57
				l3.123-61.803L364.507,136.695L364.507,136.695z"/>
			<g>
				<g>
					<g>
						<path style="fill:#396D97;" d="M386.756,412.972c0,0,6.724,5.41,8.462,22.894c0,0-25.532,2.823-56.226,1.672
							c0,0,0.534-15.235,28.317-23.661L386.756,412.972L386.756,412.972z"/>
						<path style="fill:#E8F4F9;" d="M394.388,430.032c0.336,1.776,0.619,3.716,0.83,5.834c0,0-25.532,2.823-56.226,1.672
							c0,0,0.077-2.197,1.693-5.382C351.695,433.037,378.473,434.543,394.388,430.032L394.388,430.032z"/>
					</g>
					<g>
						<path style="fill:#FBA598;" d="M352.523,320.059L365.52,415.3c6.504,1.522,14.179,1.807,22.253-0.035l-5.195-95.206H352.523z"
							/>
						<path style="fill:#EF8B83;" d="M383.621,339.177c-9.404,0.902-19.161,1.048-28.509-0.144l-2.589-18.974h30.055
							L383.621,339.177z"/>
					</g>
				</g>
				<g>
					<g>
						<path style="fill:#396D97;" d="M408.205,414.527c0,0-5.607,5.41-7.055,22.893c0,0,21.288,2.823,46.879,1.672
							c0,0-0.444-15.234-23.61-23.661L408.205,414.527L408.205,414.527z"/>
						<path style="fill:#E8F4F9;" d="M401.842,431.587c-0.281,1.776-0.517,3.716-0.692,5.833c0,0,21.288,2.823,46.879,1.672
							c0,0-0.064-2.196-1.411-5.382C437.438,434.592,415.111,436.098,401.842,431.587L401.842,431.587z"/>
					</g>
					<g>
						<path style="fill:#FBA598;" d="M393.231,322.48l12.8,96.578c5.393,1.434,14.915,1.407,20.844-2.395l-1.937-95.049
							L393.231,322.48L393.231,322.48z"/>
						<path style="fill:#EF8B83;" d="M425.126,330.807c-7.751,2.306-18.258,5.019-29.88,6.875l-2.015-15.202l31.707-0.866
							L425.126,330.807L425.126,330.807z"/>
					</g>
				</g>
				<g>
					<path style="fill:#7299E0;" d="M343.546,243.475c14.863,4.469,47.043,3.848,85.328-0.66l3.857,83.267
						c0,0-37.515,6.537-47.442,4.67l-0.847-2.636c0,0-20.894,3.784-35.638,2.32C348.804,330.436,340.193,260.609,343.546,243.475
						L343.546,243.475z"/>
					<path style="fill:#5E7CCC;" d="M377.959,329.612c-2.259-19.409-7.746-37.393-17.748-54.2l18.641,3.423l5.593,49.29
						l-0.003-0.009C384.442,328.116,381.968,328.846,377.959,329.612z"/>
				</g>
			</g>
			<g>
				<path style="fill:#EF8B83;" d="M352.003,189.059l-12.686,31.633l-12.721-16.597l7.23-24.769L352.003,189.059z"/>
				<path style="fill:#FDE677;" d="M360.211,129.75c0,0-9.947,3.095-17.768,15.236c-6.389,9.918-15.563,40.381-15.563,40.381
					l24.872,15.007L360.211,129.75z"/>
				<g>
					<path style="fill:#DCF4EC;" d="M299.039,164.416c0,0,16.54-5.12,37.921,2.864c0,0-4.766-41.839-10.733-58.603
						c0,0-14.322-4.098-23.246-1.939c-7.444,1.8-20.249,9.067-20.249,9.067S297.269,143.46,299.039,164.416z"/>
				</g>
				<path style="fill:#69A549;" d="M332.96,162.91c0,0-2.21-0.92-5.66-1.87c-2.25-0.62-5.03-1.25-8.07-1.65h-0.01
					c-5.66-0.73-12.2-0.63-17.86,1.93c0,0-0.34-7.02-4.71-20.02c0,0,0,0,0-0.01c-0.52-1.58-1.11-3.25-1.77-5.01
					c-0.35-0.94-0.73-1.92-1.12-2.92c-0.56-1.43-1.17-2.92-1.82-4.45c-1.48-3.49-3.19-7.24-5.17-11.24c0,0,12.37-5.86,18.72-7.46
					c1.55-0.39,3.43-0.49,5.37-0.42c2.03,0.07,4.13,0.33,6.03,0.64c1.22,0.2,2.36,0.42,3.34,0.62c2.02,0.43,3.36,0.8,3.36,0.8
					s0.37,1.68,0.96,4.47c1.37,6.43,3.93,18.74,5.89,29.75c0.34,1.89,0.66,3.74,0.96,5.51
					C332.13,156.01,332.69,159.97,332.96,162.91z"/>
				<g>
					<path style="fill:#78BCD1;" d="M327.3,161.04c0.85-8.87-16.81-9.51-18.72-16.76c-1.39-5.25,1.82-10.82,4.02-13.84
						c-3.82,1.38-8.68,1.81-11.94,2.15c-2.19,0.22-4.17,1.81-5.78,3.69c-0.35-0.94-0.73-1.92-1.12-2.92c1.3-1,2.67-1.8,3.95-2.05
						c4.41-0.88,13.18-0.79,16.17-4.07c2.37-2.6,2.89-12.78,3.01-16.81c1.22,0.2,2.36,0.42,3.34,0.62
						c-0.31,3.4-0.97,9.85-1.83,14.09c-0.24,1.2-0.88,2.19-1.78,3.02c0.01-0.01,0.02-0.01,0.03-0.01h0.01c0,0.1-2.83,4.45-3.53,8.19
						c-0.72,3.87-0.48,7.28,8.02,9.79c5.78,1.72,8.87,4.1,10.25,5.45c0.73,4.43,1.29,8.39,1.56,11.33
						C332.96,162.91,330.75,161.99,327.3,161.04z"/>
					<path style="fill:#9BBC5B;" d="M312.58,123.83c-4.12,3.48-12.56,0.26-16.71,2.4c-1.66,0.86-2.97,1.83-3.93,2.68
						c-1.48-3.49-3.19-7.24-5.17-11.24c0,0,12.37-5.86,18.72-7.46c1.55-0.39,3.43-0.49,5.37-0.42
						C312.59,113.49,315.67,121.23,312.58,123.83z"/>
					<path style="fill:#9BBC5B;" d="M330.44,146.07c-11.68-4.47-14.48-12.68-10.01-16.25c3.33-2.66,4.01-9.68,4.12-13.5
						C325.92,122.75,328.48,135.06,330.44,146.07z"/>
					<path style="fill:#9BBC5B;" d="M319.22,159.39c-5.66-0.73-12.2-0.63-17.86,1.93c0,0-0.34-7.02-4.71-20.02c0,0,0,0,0-0.01
						c2.62-3.53,6.43-7.8,7.85-4.59c2.16,4.88-0.71,11.3,4.08,15.67C312.49,155.94,317.71,156.33,319.22,159.39z"/>
				</g>
				<g>
					<path style="fill:#FBA598;" d="M315.01,190.836c0,0-7.238-17.333-7.104-20.861c0.135-3.528,4.557-13.846,7.405-15.058
						c2.848-1.211,11.209,3.428,10.869,6.214c0,0,2.206,0.647,3.022,1.932c1.378,2.168,0.693,4.446,0.693,4.446
						s1.911,0.336,2.201,2.685c0.417,3.381-0.905,5.245-0.905,5.245s1.728,0.134,1.772,2.993c0.049,3.18-4.326,4.601-4.326,4.601
						s4.132,6.138-1.948,12.084C322.617,199.099,315.01,190.836,315.01,190.836z"/>
					<g>
						<path style="fill:#DD5F5F;" d="M324.972,160.5c0,0-7.326,0.963-12.116,5.333c-0.349,0.319-0.374,0.861-0.055,1.211
							c0.319,0.349,0.861,0.374,1.21,0.055c4.417-4.031,11.182-4.9,11.182-4.9c0.469-0.061,0.8-0.491,0.739-0.96
							S325.441,160.439,324.972,160.5L324.972,160.5z"/>
						<path style="fill:#DD5F5F;" d="M328.497,167.215c0,0-7.516,1.147-12.713,4.92c-0.383,0.277-0.468,0.814-0.191,1.196
							c0.278,0.383,0.814,0.468,1.197,0.191c4.889-3.549,11.964-4.612,11.964-4.612c0.468-0.071,0.79-0.508,0.719-0.976
							C329.402,167.467,328.965,167.144,328.497,167.215L328.497,167.215z"/>
						<path style="fill:#DD5F5F;" d="M329.748,174.352c0,0-5.43,0.586-11.026,5.079c-0.369,0.296-0.428,0.836-0.132,1.205
							s0.836,0.428,1.205,0.132c5.156-4.14,10.142-4.713,10.142-4.713c0.47-0.052,0.809-0.476,0.757-0.946
							C330.642,174.639,330.218,174.3,329.748,174.352L329.748,174.352z"/>
					</g>
				</g>
				<path style="fill:#FBA598;" d="M313.876,185.111c0,0,4.014,25.831,6.988,32.237c5.742,12.367,21.044,9.179,18.684-1.995
					c-1.264-5.987-10.862-26.613-10.862-26.613L313.876,185.111z"/>
			</g>
			<g>
				<g>
					<path style="fill:#FBA598;" d="M403.921,110.209c0,0-4.443,16.405,2.973,18.484v10.206c0,0-13.761,5.618-21.258,5.374
						c-7.497-0.244-12.776-6.38-14.433-11.496l4.057-8.581c0,0,6.132-0.443,5.002-8.863L403.921,110.209L403.921,110.209z"/>
					<path style="fill:#EF8B83;" d="M375.943,124.068c1.565-0.407,5.213-2.076,4.319-8.735l23.659-5.124c0,0-1.001,3.695-1.259,7.8
						C396.215,122.021,385.022,127.478,375.943,124.068z"/>
				</g>
				<g>
					<path style="fill:#EF8B83;" d="M370.067,91.081c4.363,0.964,7.319,4.405,6.595,7.68c-0.723,3.276-4.852,5.153-9.215,4.189
						c-4.364-0.963-7.319-4.404-6.596-7.68C361.574,91.995,365.704,90.118,370.067,91.081z"/>
					<g>
						<path style="fill:#FBA598;" d="M394.014,59.429c13.333,1.386,22.922,14.467,20.421,34.12
							c-2.371,18.63-15.195,25.074-27.83,25.423c-7.95,0.22-20.475-6.435-19.057-31.657
							C368.895,63.334,379.783,57.95,394.014,59.429z"/>
						<path style="fill:#EF8B83;" d="M380.18,61.072c0.713-0.186,1.471-0.343,2.275-0.469c5.352-0.838,10.748-1.005,15.494-0.396
							c7.224,2.145,12.912,8.03,15.447,16.664c0.109,8.376-0.541,17.827-0.541,17.827s-7.209-8.009-7.518-19.742
							c0,0-20.115,6.323-17.811-2.923c0,0-12.989,0.341-18.24,3.624C371.411,67.835,375.231,63.329,380.18,61.072z"/>
					</g>
					<g>
						<path style="fill:#282838;" d="M417.192,93.549c0,0,3.328-20.316,3.011-27.623c-0.408-9.399-7.095-9.5-7.095-9.5
							s-0.52-10.585-8.085-14.675c-7.566-4.091-7.2,5.326-7.2,5.326s-14.983-8.284-26.499-3.334c-9.91,4.26-3.887,10.06-3.887,10.06
							s-10.881,0.963-12.432,7.628c-1.378,5.927,5.737,10.001,5.737,10.001s-3.656,2.933-1.992,6.973s6.975,6.916,6.975,6.916
							c0.257,3.519,0.937,6.769,1.886,9.847c0.247-8.474,0.863-17.867,3.479-23.209c5.923-1.943,12.659-2.677,20.045-2.446
							c0,0-3.41,4.131,0,5.147c3.41,1.016,15.759-2.855,15.759-2.855s-0.216,12.953,4.777,22.082L417.192,93.549z"/>
						<path style="fill:#36394D;" d="M358.886,78.715c-0.048-0.102-0.093-0.206-0.136-0.31c-1.664-4.04,1.992-6.973,1.992-6.973
							s-7.115-4.074-5.737-10.001c1.551-6.665,12.432-7.628,12.432-7.628s-6.023-5.8,3.887-10.06
							c11.516-4.95,26.499,3.334,26.499,3.334s-0.366-9.417,7.2-5.326c2.882,1.558,4.741,4.058,5.939,6.557
							c-2.183-1.673-7.256-5.227-8.917-3.533c-2.138,2.182-1.459,5.855-1.459,5.855s-39.05-12.52-28.745,4.595
							c0,0-23.981,4.05-7.982,15.613C363.859,70.838,359.374,73.73,358.886,78.715L358.886,78.715z"/>
					</g>
					<path style="fill:#FBA598;" d="M413.018,91.313c4.264-1.334,8.54,0.182,9.541,3.383c1.002,3.201-1.647,6.883-5.912,8.218
						c-4.264,1.334-8.539-0.182-9.541-3.383C406.105,96.33,408.754,92.647,413.018,91.313z"/>
					<g>
						<path style="fill:#282838;" d="M392.751,84.296l-0.128-2.752c0,0,6.479-2.624,9.601,3.799
							C399.213,83.586,395.332,83.378,392.751,84.296L392.751,84.296z"/>
						<path style="fill:#282838;" d="M379.264,84.233l-0.73-3.109c0,0-6.539-1.71-8.776,4.219
							C372.597,83.582,376.209,82.737,379.264,84.233z"/>
						<path style="fill:#DD5F5F;" d="M379.819,86.946c0,0,3.731,5.518-0.927,10.738c-0.156,0.174-0.246,0.397-0.255,0.63
							c0.025,0.79,0.216,2.529,1.845,3.388c0,0-2.931-0.482-3.188-3.108c-0.057-0.495,0.138-0.985,0.518-1.306
							C379.012,96.172,382.022,92.753,379.819,86.946z"/>
						<ellipse style="fill:#203A5A;" cx="375.859" cy="91.871" rx="1.348" ry="1.597"/>
						<ellipse style="fill:#203A5A;" cx="394.014" cy="92.804" rx="1.348" ry="1.597"/>
						<path style="fill:#FFFFFF;" d="M381.389,104.889l13.526-2.984c0,0,2.598,8.648-5.362,9.86
							C382.922,112.775,381.389,104.889,381.389,104.889z"/>
					</g>
				</g>
			</g>
			<path style="fill:#FFD568;" d="M378.852,122.02c0,0-13.032,48.249-13.838,139.756L339.3,259.28c0,0,8.006-119.72,16.748-126.901
				C362.385,127.173,378.852,122.02,378.852,122.02z"/>
			<path style="fill:#FCE68F;" d="M372.658,157.858c2.175-16.528,4.372-28.166,6.528-36.602c0,0-12.24,2.574-14.508,5.759
				c-2.268,3.184-8.63,20.147-8.63,20.147S365.06,150.217,372.658,157.858L372.658,157.858z"/>
			<path style="fill:#E19C4C;" d="M366.63,167.28h-14.878l-0.335,5.159h14.878L366.63,167.28z"/>
			<g>
				<path style="fill:#373541;" d="M433.213,157.858c8.259,23.973,14.634,48.294,17.428,73.278h-7.284
					c-2.647-19.562-7.201-39.038-14.098-58.409L433.213,157.858L433.213,157.858z"/>
				<path style="fill:#FFD568;" d="M406.894,127.245c0,0-19.437,38.495-8.448,134.531l34.285-2.328c0,0-2.591-88.462-2.084-98.239
					c0.508-9.777,3.853-19.994-2.602-25.144C421.59,130.915,406.894,127.245,406.894,127.245z"/>
				<path style="fill:#EF8B83;" d="M460.115,212.226l6.032-6.342l-13.851-28.215l-21.281,16.23l15.221,21.047L460.115,212.226z"/>
				<path style="fill:#FDE377;" d="M426.07,134.625c0,0,6.51,2.53,13.66,13.744c7.149,11.213,15.727,29.3,15.727,29.3
					l-27.987,22.705c0,0-6.626-16.653-7.725-26.714C418.103,158.62,421.241,143.697,426.07,134.625z"/>
				<g>
					<g>
						<path style="fill:#373541;" d="M445.344,234.319c-0.602-4.48-4.426-7.824-8.946-7.824c-7.081,0-17.519,0-25.26,0
							c-2.604,0-5.081,1.124-6.795,3.085c-1.715,1.96-2.499,4.565-2.152,7.145c1.279,9.509,3.156,23.468,4.319,32.115
							c0.603,4.48,4.426,7.823,8.947,7.823c7.081,0,17.519,0,25.26,0c2.604,0,5.081-1.124,6.795-3.084
							c1.714-1.96,2.499-4.565,2.151-7.146C448.385,256.925,446.507,242.966,445.344,234.319L445.344,234.319z"/>
						<path style="fill:#444252;" d="M452.16,234.332c-0.597-4.486-4.423-7.837-8.948-7.837c-6.969,0-17.168,0-24.774,0
							c-2.602,0-5.077,1.122-6.791,3.08c-1.714,1.957-2.501,4.558-2.158,7.137c1.264,9.504,3.12,23.462,4.271,32.114
							c0.596,4.486,4.422,7.837,8.948,7.837c6.969,0,17.167,0,24.774,0c2.602,0,5.077-1.122,6.791-3.079
							c1.714-1.957,2.5-4.559,2.157-7.138C455.167,256.943,453.31,242.984,452.16,234.332L452.16,234.332z"/>
						<g>
							<path style="fill:#4D4C59;" d="M444.128,225.302H410.1c-0.522,0-1.022,0.207-1.391,0.576
								c-0.368,0.369-0.576,0.869-0.576,1.391h4.843l1.724,12.364c0.522,3.743,3.723,6.529,7.503,6.529c5.339,0,12.907,0,18.744,0
								c2.192,0,4.276-0.949,5.715-2.602c1.438-1.653,2.091-3.849,1.788-6.02c-0.485-3.475-1.008-7.227-1.345-9.647
								C446.898,226.408,445.628,225.302,444.128,225.302L444.128,225.302z"/>
							<path style="fill:#373541;" d="M436.129,243.174h-8.056l1.259,12.946h8.056L436.129,243.174z"/>
							<path style="fill:#4D4C59;" d="M438.396,256.12h-11.024l0.152,1.616h11.024L438.396,256.12z"/>
						</g>
					</g>
					<path style="fill:#373541;" d="M410.559,229.395c-0.35-31.178,2.454-62.051,12.852-96.71l-5.667-2.869
						c-11.195,32.826-15.124,66.683-13.576,101.32L410.559,229.395L410.559,229.395z"/>
				</g>
				<g>
					<path style="fill:#FBA598;" d="M462.773,201.943c-6.751-3.2-36.266-3.798-36.734-4.329c-0.468-0.532-5.359-13.45-7.817-15.035
						c-2.458-1.585-14.74-5.378-16.452-1.694c-1.712,3.685,0.201,5.746,0.201,5.746s-3.114,0.806-3.395,3.445
						c-0.281,2.638,2.279,5.233,2.279,5.233s-2.676,1.638-2.383,4.726c0.292,3.089,3.029,4.28,3.029,4.28s-2.361,0.793-1.65,3.869
						c0.711,3.075,5.782,3.68,8.002,4.278c0,0,5.333,4.482,11.743,2.158c0,0,26.577,9.867,34.401,10.233
						c5.02,0.235,11.093-4.222,12.544-8.04C467.992,212.994,467.527,204.196,462.773,201.943L462.773,201.943z"/>
					<path style="fill:#E67470;" d="M402.224,185.356c0,0,7.355-0.503,12.392,3.435c0.34,0.266,0.4,0.758,0.134,1.098
						c-0.265,0.34-0.757,0.4-1.097,0.135c-4.598-3.595-11.32-3.108-11.32-3.108c-0.43,0.03-0.804-0.295-0.835-0.725
						C401.468,185.76,401.793,185.386,402.224,185.356L402.224,185.356z"/>
					<path style="fill:#E67470;" d="M400.988,193.943c0,0,7.007,0.237,11.077,3.235c0.348,0.256,0.422,0.746,0.166,1.094
						c-0.256,0.347-0.746,0.421-1.094,0.165c-3.742-2.756-10.197-2.93-10.197-2.93c-0.431-0.013-0.771-0.374-0.758-0.806
						C400.196,194.27,400.557,193.93,400.988,193.943z"/>
					<path style="fill:#E67470;" d="M401.766,203.085c0,0,5.616-0.195,10.055,3.107c0.346,0.258,0.418,0.748,0.161,1.095
						c-0.258,0.346-0.748,0.418-1.094,0.16c-4.003-2.977-9.068-2.799-9.068-2.799c-0.431,0.015-0.793-0.322-0.809-0.754
						C400.996,203.463,401.334,203.1,401.766,203.085L401.766,203.085z"/>
				</g>
				<path style="fill:#FCE68F;" d="M398.367,159.72c0,0,8.065-9.91,18.951-10.404c0,0-1.537-18.795-3.368-20.62
					c-3.194-3.185-10.805-6.676-10.805-6.676C401.18,134.888,399.362,147.187,398.367,159.72z"/>
			</g>
		</g>
	</g>
	<g>
		<ellipse style="fill:#BFC6D8;" cx="574.721" cy="437.814" rx="78.234" ry="7.56"/>
		<g>
			<g>
				<path style="fill:#413D55;" d="M562.093,177.033c0,0-12.635,0.07-22.292,0.123c-6.264,0.035-11.612,4.533-12.72,10.697
					c-1.492,8.308-3.475,19.339-4.467,24.862c-0.365,2.028,0.712,4.041,2.602,4.864c1.957,0.852,4.081,1.776,4.081,1.776
					L562.093,177.033L562.093,177.033z"/>
				<path style="fill:#302D3F;" d="M583.739,179.514h-40.463c-6.676,0-12.418,4.728-13.698,11.28
					c-2.326,11.897-6.017,30.785-8.702,44.521c-0.825,4.219,0.277,8.586,3.004,11.91c2.728,3.323,6.796,5.255,11.096,5.269
					c19.616,0.064,48.763,0.16,48.763,0.16V179.514z"/>
			</g>
			<g>
				<g>
					<path style="fill:#FBA598;" d="M659.448,222.652l-5.44-2.611c0,0-1.995,1.329-3.534,2.611l-12.427-1.608l0.324,15.506
						l15.838-2.19L659.448,222.652L659.448,222.652z"/>
					<path style="fill:#FBA598;" d="M666.201,226.502l2.859-1.681c0,0,5.338,5.055,2.169,6.731"/>
					<g>
						<g>
							<path style="fill:#4A4A53;" d="M721.72,182.052c0-0.836-0.332-1.638-0.924-2.229c-0.591-0.591-1.393-0.923-2.229-0.923
								c-7.274,0-25.165,0-32.439,0c-0.836,0-1.638,0.332-2.229,0.923s-0.923,1.393-0.923,2.229c0,3.976,0,10.773,0,14.75
								c0,0.836,0.332,1.638,0.923,2.229c0.591,0.591,1.393,0.923,2.229,0.923c7.274,0,25.165,0,32.439,0
								c0.836,0,1.638-0.332,2.229-0.923c0.592-0.591,0.924-1.393,0.924-2.229C721.72,192.825,721.72,186.028,721.72,182.052z"/>
							<path style="fill:#302D3F;" d="M724.852,182.052c0-0.836-0.332-1.638-0.923-2.229s-1.393-0.923-2.229-0.923
								c-7.274,0-25.165,0-32.439,0c-0.836,0-1.638,0.332-2.229,0.923s-0.924,1.393-0.924,2.229c0,3.976,0,10.773,0,14.75
								c0,0.836,0.333,1.638,0.924,2.229c0.591,0.591,1.393,0.923,2.229,0.923c7.274,0,25.165,0,32.439,0
								c0.836,0,1.638-0.332,2.229-0.923c0.591-0.591,0.923-1.393,0.923-2.229C724.852,192.825,724.852,186.028,724.852,182.052z"/>
						</g>
						<path style="fill:#14131A;" d="M693.352,179.258l-0.064,21.055c-0.001,0.593,0.233,1.162,0.652,1.582
							c0.419,0.421,0.987,0.657,1.581,0.657h17.287c1.233,0,2.232-1,2.232-2.233v-21.054c0-1.232-1-2.232-2.232-2.232
							s-2.232,1-2.232,2.232v18.822h-12.817l0.058-18.815c0.003-1.232-0.994-2.235-2.226-2.239S693.356,178.026,693.352,179.258
							L693.352,179.258z"/>
						<path style="fill:#14131A;" d="M706.922,204.791c0-0.635-0.252-1.243-0.701-1.692c-0.448-0.448-1.057-0.7-1.691-0.7
							c-2.951,0-7.938,0-10.889,0c-0.635,0-1.243,0.252-1.691,0.7c-0.449,0.449-0.701,1.057-0.701,1.692c0,0.305,0,0.617,0,0.922
							c0,0.634,0.252,1.242,0.701,1.691c0.448,0.448,1.056,0.7,1.691,0.7c2.951,0,7.938,0,10.889,0c0.634,0,1.243-0.252,1.691-0.7
							c0.449-0.449,0.701-1.057,0.701-1.691C706.922,205.408,706.922,205.096,706.922,204.791z"/>
					</g>
					<path style="fill:#14131A;" d="M698.024,204.355l-54.136,29.658c-0.777,2.073,0.218,3.298,2.038,3.719l54.136-29.658
						L698.024,204.355z"/>
					<path style="fill:#FBA598;" d="M653.625,220.319c0,0,5.487-4.533,11.468-2.141c4.82,1.928,7.37,6.678,6.727,7.743
						c-1.156,1.915-9.382-1.824-9.382-1.824s-3.893,4.432-7.548,3.629"/>
					<g>
						<path style="fill:#FCB5AA;" d="M661.256,229.097c-1.231-0.756-1.895-1.523-1.38-2.088c1.67-1.829,6.298-0.475,6.298-0.475
							c2.707,1.075,5.607,2.731,5.028,5.05c-0.385,0.204-1.008,0.261-1.769,0.208c0.445,1.108,0.428,2.179-0.735,2.794
							c-0.43,0.228-1.157,0.273-2.042,0.184c0,0.637-0.28,1.198-1.005,1.582c-0.527,0.279-1.497,0.284-2.658,0.105
							c0.006,0.641-0.27,1.208-0.998,1.597c-2.285,1.223-13.009-2.684-11.347-4.521c0.797-0.882,2.28-1.034,3.606-0.953
							c-0.154-0.292-0.146-0.565,0.071-0.803c0.676-0.74,1.836-0.959,2.979-0.957c-0.157-0.295-0.15-0.57,0.068-0.809
							C658.229,229.072,659.866,228.972,661.256,229.097z"/>
						<g>
							<path style="fill:#DD5F5F;" d="M668.77,231.123c0,0-3.963-0.617-6.926-2.105c-0.222-0.112-0.493-0.022-0.604,0.2
								c-0.112,0.222-0.022,0.493,0.2,0.604c3.077,1.546,7.191,2.19,7.191,2.19c0.245,0.038,0.475-0.13,0.514-0.375
								C669.183,231.392,669.015,231.161,668.77,231.123L668.77,231.123z"/>
							<path style="fill:#DD5F5F;" d="M666.428,233.648c0,0-5.215-1.432-8.178-3.491c-0.204-0.141-0.484-0.091-0.626,0.113
								c-0.142,0.204-0.091,0.485,0.113,0.626c3.063,2.129,8.452,3.619,8.452,3.619c0.239,0.066,0.487-0.074,0.553-0.314
								C666.808,233.962,666.667,233.714,666.428,233.648L666.428,233.648z"/>
							<path style="fill:#DD5F5F;" d="M662.411,235.645l-0.031-0.005c-0.928-0.191-5.088-1.795-7.47-3.394
								c-0.206-0.139-0.486-0.084-0.624,0.122c-0.139,0.207-0.084,0.486,0.123,0.625c2.198,1.476,5.855,2.953,7.318,3.402
								c0.354,0.108,0.604,0.156,0.71,0.155c0.184-0.001,0.291-0.078,0.348-0.132c0.181-0.17,0.19-0.455,0.02-0.636
								C662.7,235.671,662.552,235.625,662.411,235.645L662.411,235.645z"/>
						</g>
					</g>
				</g>
				<path style="fill:#F78BC0;" d="M608.761,161.13c0,0,7.182,2.453,10.501,11.88c3.319,9.427,12.079,43.782,13.809,44.471
					c1.73,0.689,12.216,3.563,12.216,3.563l-3.359,21.015c0,0-28.762,4.507-35.732-13.77
					C599.225,210.013,608.761,161.13,608.761,161.13L608.761,161.13z"/>
			</g>
			<g>
				<g>
					<g>
						<path style="fill:#312E40;" d="M542.62,394.222c0,0,13.189,43.875-1.264,45.091c-11.614,0.978-15.17-11.244-16.026-23.749
							c-0.778-11.35,0.815-23.693,6.722-26.275L542.62,394.222L542.62,394.222z"/>
						<path style="fill:#E8F4F9;" d="M525.75,419.923c1.379,10.827,5.352,20.253,15.606,19.39c5.645-0.475,7.073-7.458,6.717-15.791
							c-0.494,5.833-2.122,12.54-7.021,12.234C534.27,435.332,528.995,429.549,525.75,419.923L525.75,419.923z"/>
					</g>
					<g>
						<path style="fill:#FBA598;" d="M582.096,324.737c0,0,0.627,18.106-3.617,28.805c-4.243,10.7-35.39,49.306-35.39,49.306
							s-11.483,7.331-13.068-11.284c0,0,24.063-43.835,24.5-49.142c0.436-5.307-0.748-17.724-0.748-17.724L582.096,324.737z"/>
						<path style="fill:#EF8B83;" d="M554.222,330.253c-0.219-3.148-0.449-5.555-0.449-5.555l28.323,0.039
							c0,0,0.203,5.862-0.404,12.884C569.969,335.982,560.303,332.72,554.222,330.253L554.222,330.253z"/>
					</g>
				</g>
				<g>
					<g>
						<path style="fill:#312E40;" d="M578.76,418.688c0,0-5.598,4.504-7.045,19.059c0,0,21.256,2.35,46.808,1.392
							c0,0-0.444-12.683-23.574-19.698L578.76,418.688z"/>
						<path style="fill:#E8F4F9;" d="M572.406,432.89c-0.279,1.479-0.515,3.094-0.691,4.857c0,0,21.256,2.35,46.808,1.392
							c0,0-0.064-1.829-1.409-4.481C607.948,435.392,585.655,436.646,572.406,432.89z"/>
					</g>
					<g>
						<path style="fill:#FBA598;" d="M613.945,317.883l-16.243,102.763c0,0-7.566,4.496-19.573-0.201l7.618-96.255L613.945,317.883z
							"/>
						<path style="fill:#EF8B83;" d="M610.839,337.563c-9.27,1.424-18.136,1.333-26.148,0.436l1.056-13.809l28.198-6.307
							L610.839,337.563z"/>
					</g>
				</g>
			</g>
			<g>
				<path style="fill:#E3B386;" d="M566.17,227.057l-10.689,12.616c0,0-16.969,22.291-4.538,85.025c0,0,41.238,9.449,68.3,4.367
					c4.24-33.894,2.832-75.232-2.31-90.626c0,0-0.722-6.397-1.555-12.235C596.387,231.239,587.758,227.25,566.17,227.057
					L566.17,227.057z"/>
				<path style="fill:#E8C09A;" d="M555.484,239.669l10.686-12.612c21.588,0.193,30.217,4.182,49.208-0.853
					c0.737,5.163,1.387,10.764,1.527,11.989C605.494,239.893,578.632,243.083,555.484,239.669L555.484,239.669z"/>
				<path style="fill:#DFAA7F;" d="M547.439,265.43c10.041,15.841,34.802,46.188,73.876,39.073
					c-0.399,8.313-1.081,16.641-2.072,24.562c-27.062,5.082-68.3-4.367-68.3-4.367C545.686,298.168,545.687,278.871,547.439,265.43
					L547.439,265.43z"/>
			</g>
			<g>
				<path style="fill:#E7639D;" d="M585.287,150.244c0,0-28.472,4.539-36.15,19.031c-7.678,14.491,5.594,61.221,8.483,62.461
					c2.89,1.24,57.355,1.237,60.344-5.975c2.988-7.211,0.487-56.635-4.147-61.355C609.21,159.712,588.688,149.54,585.287,150.244
					L585.287,150.244z"/>
				<path style="fill:#413D55;" d="M599.173,155.402c0,0,19.04,38.816,16.437,72.943c-0.087,1.142,3.268-1.856,3.356-2.998
					c2.687-35.225-15.048-68.596-15.048-68.596C603.389,155.736,598.644,154.387,599.173,155.402L599.173,155.402z"/>
				<path style="fill:#413D55;" d="M557.586,160.254c0,0,22.126,35.591,20.609,60.06c-0.109,1.755-0.854,3.526-1.969,5.284
					c-1.872,2.954-4.781,5.831-7.961,8.453c-8.22,6.778-18.283,11.819-18.283,11.819c-1.024,0.513-1.438,1.761-0.925,2.784
					c0.513,1.024,0.831,2.127,1.855,1.614c0,0,15.247-7.877,24.124-16.742c4.121-4.115,7.033-8.637,7.301-12.955
					c1.578-25.442-20.27-62.72-20.27-62.72C561.46,156.879,556.979,159.282,557.586,160.254L557.586,160.254z"/>
			</g>
			<g>
				<g>
					<path style="fill:#996851;" d="M537.41,128.365c8.77-5.313,32.893-16.587,50.568-20.294c18.07-3.791,42.126-4.207,53.93-2.278
						c0.005,0.012,0.009,0.023,0.012,0.034c0.44,1.417-44.649,8.819-51.636,10.702c0,0-49.814,14.116-52.662,12.163
						C537.501,128.609,537.431,128.499,537.41,128.365L537.41,128.365z"/>
					<g>
						<path style="fill:#76484F;" d="M612.546,100.996c0,0,20.773,36.899,2.962,56.804c0,0,0.942-2.722,0.909-6.262
							c0,0-3.136,8.308-16.047,7.83c0,0,1.872-3.78,0.995-6.686c0,0-3.293,5.198-7.802,4.18l-3.894-15.846L612.546,100.996z"/>
						<path style="fill:#553439;" d="M607.057,110.597l5.754,1.237c0,0,9.744,25.295-0.932,35.602c0,0,3.085,1.814,6.11-0.991
							c0,0-2.911,8.424-8.747,11.562c-2.254,0.909-5.159,1.498-8.872,1.361c0,0,1.872-3.78,0.995-6.686c0,0-3.293,5.198-7.802,4.18
							l-3.894-15.846L607.057,110.597z"/>
					</g>
					<g>
						<g>
							<path style="fill:#FBA598;" d="M595.762,145.427c0,0-2.503,8.837-0.031,12.277c0,0,0.161,7.207-4.589,7.374
								c-5.449,0.192-11.377-4.653-15.898-13.518c-1.926-3.775,2.09-14.305,2.09-14.305L595.762,145.427z"/>
							<path style="fill:#EF8B83;" d="M576.17,140.753c0.603-2.033,1.164-3.498,1.164-3.498l18.428,8.172
								c0,0-1.118,3.947-1.122,7.593C584.578,152.971,578.474,144.642,576.17,140.753z"/>
						</g>
						<g>
							<path style="fill:#FBA598;" d="M588.953,95.548c-13.285,1.401-21.973,15.072-19.671,29.778
								c2.716,17.344,15.469,23.714,27.329,24.183c7.462,0.295,19.157-5.754,17.093-29.215
								C611.445,94.611,602.238,94.147,588.953,95.548z"/>
							<path style="fill:#EF8B83;" d="M609.201,102.092l-30.779,3.685l-6.395,13.418l5.107,9.682c0,0,7.576-9.353,8.153-17.304
								c0,0,13.711,5.372,21.601,1.91l-1.436-1.94c0,0,3.919,1.93,7.359,1.724C611.961,108.388,610.745,104.763,609.201,102.092
								L609.201,102.092z"/>
						</g>
					</g>
					<g>
						<path style="fill:#76484F;" d="M585.287,107.414c0,0,6.108,5.87,18.911,4.974c0,0-2.914-2.291-3.527-4.974
							c0,0,7.774,5.472,13.146,5.336l-1.271-9.953L585.287,107.414L585.287,107.414z"/>
						<path style="fill:#76484F;" d="M583.01,107.414c0,0-0.46,11.93-5.368,22.645c0,0-0.094,25.426,7.645,30.442
							c0,0-13.273,3.494-19.117-9.613c0,0-0.524,3.915,1.926,6.717c0,0-8.93,1.335-10.293-13.897
							c-1.416-15.809,5.886-33.054,5.886-33.054L583.01,107.414z"/>
					</g>
					<g>
						<path style="fill:#CA8150;" d="M537.59,128.848l0.014,0.011l-0.006-0.005L537.59,128.848z M537.567,128.828
							c0.006,0.005,0.012,0.011,0.018,0.016L537.567,128.828z M537.551,128.812l0.014,0.014l-0.011-0.01L537.551,128.812
							L537.551,128.812z M537.534,128.794l0.012,0.013l-0.005-0.004L537.534,128.794z M537.516,128.774
							c0.004,0.005,0.009,0.011,0.014,0.017L537.516,128.774z M537.502,128.756l0.01,0.013l-0.006-0.008L537.502,128.756z
							 M537.488,128.735l0.01,0.015l-0.003-0.003L537.488,128.735z M537.474,128.714c0.004,0.006,0.008,0.012,0.012,0.018
							L537.474,128.714z M537.464,128.695l0.007,0.013l-0.004-0.007L537.464,128.695z M537.452,128.669
							c0.002,0.007,0.005,0.013,0.009,0.019L537.452,128.669z M537.443,128.649l0.008,0.018l-0.006-0.014L537.443,128.649z
							 M537.435,128.627l0.006,0.016l-0.003-0.007L537.435,128.627z M537.427,128.6c0.002,0.008,0.004,0.015,0.007,0.022
							L537.427,128.6z M537.422,128.578l0.005,0.02l-0.004-0.014L537.422,128.578z M537.421,128.573
							c-0.61-2.947,23.084-18.128,24.555-19.852c0.586-0.686,0.525-18.702,2.051-21.386s12.02-8.946,20.591-10.183
							c8.571-1.238,21.462,0.271,23.349,3.101c1.887,2.83,5.924,18.685,7.294,19.249c1.366,0.563,25.714,3.788,26.66,6.493
							l-0.005-0.016c-11.805-1.93-35.861-1.513-53.931,2.277c-17.675,3.708-41.798,14.981-50.568,20.295L537.421,128.573
							L537.421,128.573z M641.922,105.996l0.006,0.017L641.922,105.996z M537.61,128.863l0.02,0.014l-0.017-0.011L537.61,128.863z"
							/>
						<path style="fill:#CF9A60;" d="M569.296,83.05c4.185-2.534,10.109-5.145,15.322-5.898c8.571-1.238,21.462,0.271,23.349,3.101
							c1.209,1.813,3.3,8.971,5.007,14.031c-3.056-5.115-4.904-8.313-12.113-11.845C593.103,78.638,577.753,80.767,569.296,83.05
							L569.296,83.05z"/>
						<path style="fill:#2C2637;" d="M562.381,104.469c14.063-9.226,38.521-9.881,50.808-9.553c0.717,2.085,1.353,3.728,1.809,4.341
							c-27.084-0.563-52.796,9.465-52.796,9.465l-0.39,0.165c0.07-0.064,0.125-0.12,0.164-0.166
							C562.148,108.52,562.264,106.828,562.381,104.469z"/>
					</g>
				</g>
				<g>
					<path style="fill:#76484F;" d="M592.195,118.364l0.114-2.456c0,0-5.783-2.343-8.57,3.391
						C586.427,117.731,589.891,117.545,592.195,118.364z"/>
					<path style="fill:#76484F;" d="M604.234,118.308l0.651-2.775c0,0,5.837-1.526,7.834,3.766
						C610.185,117.727,606.961,116.973,604.234,118.308z"/>
					<path style="fill:#DD5F5F;" d="M603.738,120.73c0,0-3.32,4.911,0.809,9.564c0.158,0.178,0.248,0.406,0.254,0.644
						c-0.04,0.729-0.241,2.218-1.654,2.963c0,0,2.471-0.406,2.821-2.582c0.095-0.517-0.091-1.046-0.489-1.389
						C604.389,128.884,601.798,125.845,603.738,120.73z"/>
					<ellipse style="fill:#203A5A;" cx="607.273" cy="125.126" rx="1.204" ry="1.425"/>
					<ellipse style="fill:#203A5A;" cx="591.067" cy="125.959" rx="1.204" ry="1.425"/>
					<path style="fill:#DD5F5F;" d="M602.279,137.888c0,0-6.956,2.56-10.743-2.78c-0.183-0.259-0.543-0.32-0.801-0.136
						c-0.259,0.183-0.32,0.543-0.137,0.801c4.262,6.011,12.075,3.195,12.075,3.195c0.298-0.108,0.452-0.438,0.343-0.737
						C602.908,137.933,602.578,137.779,602.279,137.888z"/>
				</g>
			</g>
			<g>
				<path style="fill:#FBA598;" d="M560.19,221.174c0,0,5.541-0.476,5.895-0.857s3.527-9.186,5.366-10.302
					c1.838-1.115,10.941-3.656,12.125-0.913c1.184,2.742-0.263,4.218-0.263,4.218s2.272,0.655,2.426,2.6
					c0.153,1.945-1.781,3.801-1.781,3.801s1.934,1.257,1.657,3.521c-0.277,2.265-2.313,3.085-2.313,3.085s1.719,0.63,1.134,2.876
					c-0.584,2.246-4.323,2.589-5.967,2.983c0,0-3.833,2.882-8.035,2.195l-8.569,2.27L560.19,221.174L560.19,221.174z"/>
				<path style="fill:#E67470;" d="M583.152,212.378c0,0-5.395-0.517-9.176,2.275c-0.256,0.189-0.31,0.549-0.121,0.805
					c0.188,0.255,0.549,0.309,0.804,0.121c3.452-2.55,8.381-2.057,8.381-2.057c0.316,0.031,0.598-0.2,0.629-0.516
					C583.7,212.69,583.468,212.409,583.152,212.378L583.152,212.378z"/>
				<path style="fill:#E67470;" d="M583.888,218.714c0,0-5.155,0.033-8.206,2.155c-0.261,0.181-0.325,0.539-0.144,0.8
					c0.181,0.261,0.54,0.325,0.8,0.144c2.806-1.951,7.553-1.949,7.553-1.949c0.318-0.001,0.575-0.259,0.574-0.577
					C584.464,218.97,584.205,218.713,583.888,218.714L583.888,218.714z"/>
				<path style="fill:#E67470;" d="M583.132,225.417c0,0-4.124-0.256-7.453,2.082c-0.259,0.182-0.322,0.541-0.14,0.801
					c0.183,0.259,0.542,0.322,0.801,0.14c3.002-2.108,6.721-1.875,6.721-1.875c0.316,0.02,0.59-0.221,0.609-0.538
					C583.69,225.71,583.449,225.437,583.132,225.417z"/>
			</g>
			<path style="fill:#F78BC0;" d="M557.384,160.697c0,0-6.509,2.731-11.031,13.195c-4.523,10.464-18.212,51.216-8.943,61.302
				c9.269,10.087,29.826,4.055,29.826,4.055c-2.043-7.945-2.96-11.371-2.498-18.889l-4.882-0.024
				C559.856,220.336,568.36,176.535,557.384,160.697L557.384,160.697z"/>
		</g>
	</g>
	<g>
		<ellipse style="fill:#BFC6D8;" cx="187.244" cy="437.814" rx="110.729" ry="7.56"/>
		<g>
			<g>
				<g>
					<g>
						<path style="fill:#363440;" d="M291.722,408.546l2.62,16.926c-3.084,4.045-7.718,4.958-13.546,3.454l-4.461-9.593
							L291.722,408.546L291.722,408.546z"/>
						<path style="fill:#363440;" d="M248.908,408.546l2.62,16.926c-3.085,4.045-7.718,4.958-13.546,3.454l-4.461-9.593
							L248.908,408.546L248.908,408.546z"/>
					</g>
					<g>
						<path style="fill:#537AC1;" d="M210.282,321.643l-10.436,12.141l5.533,5.262l4.549-6.28l20.922,69.295
							c1.229,4.072,4.971,6.865,9.224,6.886l49.549,0.25l-6.125,6.892l5.519,2.988l10.76-12.385l-0.017-0.022
							c0.443-0.407,0.851-0.856,1.217-1.346c1.838-2.463,2.399-5.652,1.511-8.595c-5.923-19.616-17.175-56.881-21.803-72.212
							c-1.23-4.071-4.971-6.865-9.224-6.886c-12.288-0.062-37.573-0.19-53.093-0.268c-3.073-0.015-5.972,1.429-7.81,3.891
							C210.463,321.382,210.371,321.512,210.282,321.643L210.282,321.643z"/>
						<path style="fill:#425DA2;" d="M209.982,321.992l-4.696,5.464l59.466,0.173c3.46,0.01,6.528,2.223,7.629,5.503
							c3.726,11.102,10.361,30.872,10.361,30.872c0.481,1.433,2.035,2.205,3.468,1.725c1.433-0.481,2.206-2.035,1.725-3.468
							c0,0-6.635-19.77-10.361-30.872c-1.848-5.505-6.999-9.221-12.806-9.238L209.982,321.992L209.982,321.992z"/>
					</g>
					<g>
						<path style="fill:#7299E0;" d="M269.166,337.388c-1.156-3.828-4.674-6.454-8.672-6.474
							c-12.324-0.062-38.687-0.195-54.305-0.274c-2.89-0.014-5.615,1.343-7.343,3.659c-1.729,2.315-2.256,5.314-1.421,8.08
							c5.91,19.575,17.546,58.114,22.153,73.373c1.156,3.828,4.674,6.454,8.673,6.474c12.323,0.062,38.686,0.195,54.304,0.274
							c2.89,0.014,5.615-1.343,7.343-3.659c1.729-2.315,2.256-5.314,1.421-8.08C285.409,391.186,273.773,352.647,269.166,337.388
							L269.166,337.388z"/>
						<path style="fill:#8AAAE5;" d="M275.848,389.132c-0.809-2.961-3.499-5.015-6.569-5.015c-9.858,0-31.374,0-43.58,0
							c-2.123,0-4.125,0.99-5.413,2.678c-1.288,1.687-1.716,3.879-1.156,5.927c1.236,4.523,2.707,9.908,3.756,13.746
							c0.809,2.961,3.5,5.014,6.569,5.014c9.858,0,31.374,0,43.581,0c2.123,0,4.124-0.99,5.412-2.677
							c1.289-1.688,1.716-3.88,1.157-5.928C278.369,398.355,276.897,392.97,275.848,389.132z"/>
					</g>
					<g>
						<path style="fill:#425DA2;" d="M262.156,339.316c-0.482-1.554-1.919-2.614-3.546-2.614c-8.842,0-36.739,0-48.265,0
							c-1.182,0-2.294,0.563-2.993,1.517c-0.7,0.953-0.903,2.182-0.549,3.31c0.733,2.329,1.582,5.032,2.191,6.969
							c0.486,1.545,1.918,2.597,3.537,2.599c8.823,0.012,36.737,0.049,48.253,0.064c1.18,0.002,2.291-0.558,2.992-1.507
							c0.701-0.95,0.909-2.176,0.559-3.304C263.608,344.003,262.762,341.272,262.156,339.316L262.156,339.316z"/>
						<path style="fill:#373541;" d="M252.692,342.991l-14.64-48.704c-0.352-1.172-1.438-1.968-2.661-1.95l-30.253,0.422
							c-0.859,0.013-1.662,0.427-2.17,1.12s-0.662,1.584-0.415,2.406l14.44,48.103c0.434,1.448,1.963,2.271,3.41,1.836
							c1.448-0.434,2.271-1.963,1.836-3.41l-13.396-44.628l24.558-0.344l14.046,46.726c0.435,1.448,1.963,2.27,3.411,1.835
							S253.128,344.439,252.692,342.991L252.692,342.991z"/>
					</g>
				</g>
				<g>
					<path style="fill:#FBA598;" d="M197.625,272.398c0,0,6.366,12.063,6.745,14.419c0.379,2.355,0.948,5.211,4.684,8.534
						c3.736,3.322,12.284,6.501,14.61,4.287c1.158-1.102-5.967-6.079-5.967-6.079s-0.079-1.523,3.209-1.446
						c1.874,0.044,10.088,1.14,10.738,0.772c0.651-0.367,1.281-3.236-0.182-5.682c-1.463-2.446-12.99-5.589-15.386-6.753
						c-2.395-1.164-4.611-11.289-5.776-14.119L197.625,272.398L197.625,272.398z"/>
					<path style="fill:#EF8B83;" d="M200.207,277.425c3.731-0.168,8.434-0.817,12.763-2.686c-1.105-3.223-2.041-6.879-2.67-8.408
						l-12.675,6.067C197.625,272.398,198.822,274.665,200.207,277.425z"/>
				</g>
			</g>
			<g>
				<g>
					<g>
						<g>
							<path style="fill:#CB4645;" d="M200.759,395.245c0,0-6.228,45.388,8.239,44.349c11.625-0.835,13.243-13.46,12.151-25.946
								c-0.992-11.333-4.183-22.706-9.364-25.269L200.759,395.245L200.759,395.245z"/>
							<path style="fill:#F9EBEA;" d="M221.409,418.019c0.316,10.91-2.147,20.838-12.411,21.575
								c-5.651,0.406-8.144-6.271-9.084-14.558c1.392,5.686,4.04,12.059,8.833,10.997
								C215.381,434.563,219.696,428.031,221.409,418.019L221.409,418.019z"/>
						</g>
						<path style="fill:#FBA598;" d="M192.143,389.116c0,0,9.378,12.24,12.003,13.793c2.624,1.552,9.756,1.284,9.211-11.038
							l-8.052-15.248L192.143,389.116L192.143,389.116z"/>
					</g>
					<g>
						<g>
							<path style="fill:#CB4645;" d="M128.59,414.978c0,0-9.001,4.005-16.583,6.909c-7.68,2.942-12.134,9.41-11.654,17.707
								l53.498-4.096c0,0-3.212-17.265-6.95-21.85L128.59,414.978L128.59,414.978z"/>
							<path style="fill:#F9EBEA;" d="M152.386,428.731c0.913,3.801,1.465,6.767,1.465,6.767l-53.498,4.096
								c-0.104-1.788,0.022-3.492,0.36-5.094C113.896,432.949,140.016,430.082,152.386,428.731z"/>
						</g>
						<path style="fill:#FBA598;" d="M125.576,395.337c0,0,0.785,20.216,1.193,21.512c0.408,1.296,6.432,2.993,19.939-1.91
							l-0.035-19.694L125.576,395.337L125.576,395.337z"/>
					</g>
				</g>
				<g>
					<path style="fill:#312E40;" d="M116.292,222.312c0,0-13.881,16.593-14.395,37.447c-0.514,20.853,10.816,143.813,10.816,143.813
						s24.434,0.334,36.311-3.744l-2.316-88.695c0,0,9.769,35.905,16.462,47.512c6.692,11.606,22.87,36.6,22.87,36.6
						s20.36-2.357,27.346-20.253c0,0-19.634-40.776-21.243-53.798c-2.305-18.65-6.573-73.639-19.762-92.566L116.292,222.312z"/>
					<path style="fill:#22202D;" d="M148.159,366.685l-1.451-55.552c0,0,0.114,0.422,0.327,1.188l-0.159-1.335l-8.435-27.052
						l-9.802-2.434C137.729,310.001,143.667,338.372,148.159,366.685z"/>
					<path style="fill:#22202D;" d="M137.38,275.138c3.933-1.14,8.077-4.152,8.137-11.232c0.055-6.529,1.496-33.639,1.496-33.639
						c0.028-0.523-0.375-0.971-0.898-0.999c-0.524-0.028-0.972,0.375-1,0.898c0,0-1.443,27.179-1.498,33.724
						c-0.048,5.719-3.247,8.291-6.428,9.32c-2.073-22.659,2.182-42.797,2.182-42.797c0.108-0.513-0.22-1.017-0.733-1.126
						c-0.513-0.108-1.018,0.22-1.126,0.733c0,0-4.705,22.25-1.898,46.425c0.061,0.521,0.533,0.895,1.054,0.834
						c0.52-0.06,0.894-0.532,0.834-1.053C137.46,275.864,137.419,275.501,137.38,275.138L137.38,275.138z"/>
					<path style="fill:#22202D;" d="M164.76,230.226c0,0,0.088,7.65,3.219,13.281c2.198,3.95,5.832,6.938,11.813,5.98
						c0.518-0.083,0.871-0.571,0.788-1.088c-0.083-0.518-0.57-0.871-1.088-0.788c-4.997,0.8-8.017-1.728-9.852-5.028
						c-2.918-5.245-2.981-12.376-2.981-12.376c-0.005-0.524-0.435-0.946-0.959-0.94C165.175,229.272,164.754,229.702,164.76,230.226
						L164.76,230.226z"/>
					<path style="fill:#22202D;" d="M117.543,228.552c0,0-0.868,5.217-3.708,9.691c-1.821,2.869-4.461,5.452-8.281,5.987
						c-0.519,0.073-0.882,0.554-0.809,1.073c0.073,0.519,0.554,0.882,1.073,0.809c4.415-0.619,7.517-3.535,9.621-6.85
						c3.047-4.801,3.979-10.398,3.979-10.398c0.086-0.517-0.264-1.007-0.782-1.093C118.119,227.685,117.629,228.035,117.543,228.552
						z"/>
				</g>
			</g>
			<g>
				<g>
					<g>
						<path style="fill:#FB9C8D;" d="M92.287,146.697c0,0,1.977-13.759,2.907-15.439c0.931-1.68,11.628-17.295,12.52-20.409
							c0.893-3.115-13.261-14.074-15.724-10.021c-2.463,4.053-1.45,2.73-1.45,2.73s-3.757-1.136-4.801,0.525
							c-1.043,1.661-1.271,4.103-1.271,4.103s-3.574,0.202-4.191,2.087c-0.616,1.885-0.58,3.428-0.58,3.428
							s-1.831-0.445-3.186,0.543c-1.354,0.987-6.22,8.244-4.946,9.319c1.275,1.075,6.753-3.727,7.654-4.068
							c0.901-0.34,2.006,1.384,2.895,1.94c0,0-2.022,6.537,0.403,10.046l-5.586,15.99L92.287,146.697L92.287,146.697z"/>
						<g>
							<path style="fill:#FB9C8D;" d="M79.744,114.774c0,0-0.874,7.562,1.415,8.043c2.197,0.462,2.747-4.23,2.747-4.23"/>
							<path style="fill:#DD5F5F;" d="M79.173,114.708c0,0-0.435,3.821,0.109,6.284c0.158,0.714,0.403,1.32,0.735,1.732
								c0.279,0.347,0.621,0.571,1.024,0.656c1.143,0.24,1.998-0.507,2.547-1.593c0.675-1.334,0.889-3.133,0.889-3.133
								c0.037-0.315-0.188-0.601-0.504-0.638c-0.315-0.037-0.601,0.189-0.638,0.504c0,0-0.182,1.579-0.773,2.748
								c-0.296,0.585-0.668,1.116-1.285,0.987c-0.197-0.042-0.338-0.193-0.461-0.389c-0.185-0.293-0.313-0.683-0.411-1.122
								c-0.511-2.314-0.09-5.904-0.09-5.904c0.037-0.316-0.19-0.601-0.505-0.638C79.495,114.166,79.209,114.392,79.173,114.708
								L79.173,114.708z"/>
						</g>
						<g>
							<path style="fill:#FB9C8D;" d="M84.464,109.356c0,0-1.793,10.62,0.92,10.819c3.139,0.23,3.389-5.401,3.389-5.401"/>
							<path style="fill:#DD5F5F;" d="M83.897,109.26c0,0-0.89,5.308-0.479,8.562c0.119,0.935,0.353,1.712,0.706,2.203
								c0.315,0.438,0.722,0.687,1.218,0.723c1.515,0.111,2.506-0.862,3.11-2.127c0.796-1.67,0.895-3.822,0.895-3.822
								c0.014-0.317-0.232-0.586-0.549-0.6c-0.317-0.014-0.586,0.232-0.6,0.549c0,0-0.081,1.903-0.784,3.377
								c-0.397,0.832-0.992,1.549-1.988,1.477c-0.216-0.016-0.352-0.19-0.471-0.417c-0.199-0.378-0.319-0.903-0.396-1.507
								c-0.395-3.127,0.472-8.227,0.472-8.227c0.053-0.313-0.158-0.61-0.471-0.662C84.247,108.736,83.95,108.947,83.897,109.26z"/>
						</g>
						<g>
							<path style="fill:#FB9C8D;" d="M90.517,104.315c0,0-4.304,9.411-2.263,10.42c3.658,1.811,7.884-8.567,7.884-8.567"/>
							<path style="fill:#DD5F5F;" d="M89.994,104.076c0,0-2.142,4.693-2.717,7.861c-0.162,0.895-0.196,1.681-0.061,2.238
								c0.127,0.524,0.397,0.885,0.783,1.076c1.305,0.645,2.7,0.083,3.972-1.156c2.564-2.495,4.7-7.71,4.7-7.71
								c0.12-0.294-0.022-0.63-0.316-0.749c-0.294-0.12-0.63,0.021-0.749,0.315c0,0-2.006,4.955-4.437,7.32
								c-0.868,0.846-1.769,1.39-2.66,0.949c-0.155-0.077-0.181-0.276-0.21-0.515c-0.051-0.423,0.001-0.962,0.11-1.563
								c0.555-3.058,2.631-7.588,2.631-7.588c0.132-0.288,0.005-0.63-0.284-0.762C90.468,103.66,90.126,103.788,89.994,104.076z"/>
						</g>
					</g>
					<path style="fill:#FFD568;" d="M125.519,152.486c-9.584,0.552-31.528,8.996-34.152,10.676l2.851-26.422
						c0,0-8.487,3.009-20.701,5.96c0,0-7.898,30.49-6.853,39.361c1.051,8.932,5.485,11.154,10.783,10.996
						c5.298-0.159,32.532-2.395,32.532-2.395C123.777,184.352,126.531,169.821,125.519,152.486L125.519,152.486z"/>
				</g>
				<path style="fill:#FCC158;" d="M109.979,190.662c-0.057,9.266-0.034,35.266,2.683,37.802c8.288,7.737,54.355,6.364,59.436,2.9
					c1.678-1.144,3.368-4.872,3.488-7.979l2.981-69.504c-17.216-4.924-25.783-5.266-25.783-5.266s-18.523,3.367-27.265,3.871
					C117.069,159.613,110.059,177.819,109.979,190.662L109.979,190.662z"/>
				<path style="fill:#FFD568;" d="M175.586,223.385c2.074,6.467,21.45,51.467,21.45,51.467s13.458-1.882,18.676-9.759
					c0,0-10.234-55.37-13.004-68.73c-2.771-13.359-5.412-37.124-24.141-42.482C178.567,153.881,163.165,184.668,175.586,223.385
					L175.586,223.385z"/>
			</g>
			<g>
				<g>
					<path style="fill:#CA8150;" d="M147.479,136.74c0,0-49.121-16.104-56.839-48.332c-7.718-32.229,27.798-40.445,41.255-39.645
						c18.143,1.079,28.029,6.049,40.759,17.495c8.061,7.246,11.322,18.684,21.285,26.335c8.523,6.546,29.942,16.567,27.277,28.656
						c-2.514,11.402-12.977,21.501-46.567,19.139L147.479,136.74z"/>
					<path style="fill:#CF9A60;" d="M90.878,89.35c-0.083-0.312-0.162-0.626-0.238-0.942c-7.718-32.229,27.798-40.445,41.255-39.645
						c10.406,0.619,18.097,2.518,25.166,6.186c-9.325-2.984-19.375-4.348-28.902-2.737c-14.249,2.409-29.203,9.83-34.377,24.09
						C92.291,80.411,91.402,84.909,90.878,89.35z"/>
				</g>
				<path style="fill:#AD6438;" d="M160.618,94.069c17.356,4.24,30.133,13.059,28.515,19.682c-1.618,6.624-17.022,8.559-34.378,4.32
					c-17.356-4.24-30.134-13.059-28.516-19.683C127.857,91.765,143.262,89.829,160.618,94.069z"/>
				<path style="fill:#2C2637;" d="M141.22,91.35c0,0-10.084,2.732-13.585,15.173s-4.049,21.251-2.963,25.364
					c1.085,4.114,5.793,9.136-0.154,15.896c-5.947,6.76-5.717,11.545-3.398,18.598c2.319,7.053,4.113,11.334-2.289,15.22
					c0,0,15.576,3.93,18.726-9.651c3.15-13.582-1.955-15.782,3.648-20.339c11.02-8.962,2.866-13.988,2.69-20.768
					C143.72,124.064,141.22,91.35,141.22,91.35L141.22,91.35z"/>
				<g>
					<path style="fill:#FBA598;" d="M144.891,140.776c0,0,0.999,11.595-4.42,11.873c0,0-2.541,12.734,5.88,13.021
						c9.692,0.331,19.624-12.284,19.624-12.284s-6.382-0.633-0.951-18.363L144.891,140.776z"/>
					<path style="fill:#EF8B83;" d="M143.987,149.55c1.357-3.519,0.904-8.774,0.904-8.774l20.133-5.753
						c-1.179,3.849-1.801,6.893-2.053,9.298C157.975,147.79,151.105,151.005,143.987,149.55L143.987,149.55z"/>
				</g>
				<g>
					<path style="fill:#FBA598;" d="M158.284,89.853c12.593,2.988,19.346,17.606,15.425,31.927
						c-4.626,16.893-17.613,21.683-29.056,20.722c-7.2-0.605-17.726-8.017-13.015-31.059
						C136.795,86.219,145.69,86.865,158.284,89.853z"/>
					<path style="fill:#EF8B83;" d="M134.873,99.977c4.479-11.295,10.711-12.477,18.683-11.119l10.415,3.352
						c5.05,3.13,8.489,8.514,9.924,14.836C156.455,97.435,141.849,98.539,134.873,99.977L134.873,99.977z"/>
				</g>
				<path style="fill:#2C2637;" d="M168.488,94.203c0,0,3.549,14.393-0.063,29.312c-3.613,14.919-8.935,19.838-7.606,26.418
					c1.328,6.581,6.606,8.737,3.161,18.813c-3.698,10.819,1.953,19.887,13.156,17.445c0,0-5.652-4.071-0.122-12.876
					c5.53-8.805,5.272-11.231,3.721-19.869c-1.552-8.638-3.167-5.833,0.074-15.463c3.242-9.631,5.799-17.323,1.971-30.861
					C178.951,93.584,168.488,94.203,168.488,94.203z"/>
				<path style="fill:#CA8150;" d="M118.177,101.232c17.349-10.622,60.944-6.241,75.259,20.779l-3.292-25.855L147.479,73.74
					l-24.171,10.795L118.177,101.232z"/>
				<g>
					<path style="fill:#224468;" d="M126.205,204.6c3.859-18.455,9.45-36.662,16.77-55.005c0.194-0.487-0.043-1.04-0.53-1.234
						c-0.487-0.195-1.041,0.043-1.235,0.53c-7.362,18.448-12.984,36.759-16.864,55.32c-0.108,0.513,0.222,1.017,0.735,1.124
						C125.594,205.442,126.098,205.113,126.205,204.6z"/>
					<path style="fill:#224468;" d="M155.344,204.466c3.797-17.159,6.841-35.355,9.576-53.978c0.076-0.519-0.283-1.002-0.802-1.078
						c-0.518-0.076-1.001,0.283-1.078,0.802c-2.728,18.576-5.764,36.727-9.551,53.844c-0.114,0.511,0.21,1.019,0.722,1.132
						C154.723,205.302,155.23,204.978,155.344,204.466L155.344,204.466z"/>
					<g>
						<g>
							<path style="fill:#356AA3;" d="M158.884,206.346c0.06-1.262-0.383-2.497-1.233-3.432c-0.85-0.936-2.037-1.495-3.299-1.556
								c-6.027-0.288-16.348-0.782-22.374-1.071c-1.262-0.06-2.497,0.384-3.433,1.234c-0.935,0.849-1.494,2.036-1.555,3.299
								c-0.187,3.906-0.45,9.411-0.637,13.317c-0.061,1.262,0.383,2.497,1.233,3.432c0.85,0.936,2.036,1.495,3.299,1.556
								c6.026,0.288,16.347,0.782,22.374,1.071c1.262,0.06,2.497-0.383,3.432-1.233c0.936-0.85,1.495-2.037,1.556-3.299
								C158.434,215.757,158.697,210.253,158.884,206.346z"/>
							<path style="fill:#3E7CBF;" d="M154.435,206.133c0.06-1.262-0.384-2.497-1.234-3.432c-0.849-0.936-2.036-1.495-3.299-1.556
								c-6.026-0.288-16.347-0.782-22.373-1.071c-1.263-0.06-2.498,0.384-3.433,1.234c-0.935,0.849-1.495,2.036-1.555,3.299
								c-0.187,3.906-0.451,9.411-0.638,13.317c-0.06,1.262,0.383,2.497,1.233,3.433c0.85,0.935,2.037,1.494,3.3,1.555
								c6.026,0.288,16.347,0.782,22.373,1.071c1.263,0.06,2.497-0.383,3.433-1.233c0.935-0.85,1.495-2.037,1.555-3.299
								C153.984,215.544,154.248,210.04,154.435,206.133L154.435,206.133z"/>
						</g>
						<g>
							<path style="fill:#316398;" d="M132.137,216c-1.244-1.303-1.973-3.093-1.881-5.033c0.093-1.939,0.99-3.652,2.353-4.829
								l0.09-1.876l5.384,0.258l-0.002,0.035c3.415,0.512,5.958,3.541,5.789,7.064c-0.168,3.523-2.989,6.296-6.437,6.479
								l-0.002,0.035l-5.384-0.257L132.137,216L132.137,216z"/>
							<g>
								<path style="fill:#6798CE;" d="M132.699,204.262c3.756,0.18,6.66,3.376,6.481,7.133c-0.18,3.756-3.376,6.66-7.133,6.481
									c-3.757-0.18-6.661-3.376-6.481-7.133S128.942,204.082,132.699,204.262z"/>
								<g>
									<path style="fill:#22202D;" d="M132.63,205.684c2.972,0.143,5.269,2.671,5.127,5.642c-0.142,2.972-2.67,5.269-5.642,5.127
										s-5.269-2.67-5.127-5.642C127.131,207.839,129.659,205.542,132.63,205.684z"/>
									<path style="fill:#FFFFFF;" d="M130.427,207.414c0.714,0.034,1.265,0.642,1.231,1.356
										c-0.034,0.714-0.641,1.266-1.355,1.232c-0.714-0.035-1.266-0.642-1.232-1.356S129.713,207.38,130.427,207.414
										L130.427,207.414z"/>
								</g>
							</g>
						</g>
						<g>
							<path style="fill:#28507B;" d="M151.146,204.055c0.011-0.228-0.166-0.422-0.394-0.433c-1.229-0.059-4.842-0.232-6.07-0.291
								c-0.229-0.011-0.423,0.166-0.434,0.394c-0.027,0.573-0.077,1.601-0.104,2.174c-0.011,0.229,0.166,0.423,0.394,0.434
								c1.228,0.059,4.842,0.232,6.07,0.291c0.229,0.011,0.423-0.166,0.434-0.395C151.069,205.656,151.118,204.628,151.146,204.055z
								"/>
							<g>
								<path style="fill:#22202D;" d="M150.557,204.467c0.008-0.172-0.125-0.319-0.297-0.327c-1.001-0.048-4.123-0.197-5.123-0.245
									c-0.173-0.008-0.319,0.125-0.327,0.297c-0.016,0.321-0.039,0.818-0.055,1.139c-0.008,0.173,0.125,0.319,0.297,0.327
									c1.001,0.048,4.123,0.198,5.124,0.245c0.172,0.009,0.318-0.124,0.326-0.297
									C150.518,205.285,150.542,204.788,150.557,204.467z"/>
								<path style="fill:#FFFFFF;" d="M148.719,204.657c0.004-0.073-0.022-0.144-0.071-0.198c-0.049-0.054-0.117-0.086-0.19-0.09
									c-0.639-0.031-2.223-0.106-2.863-0.137c-0.072-0.003-0.144,0.022-0.198,0.071c-0.053,0.049-0.086,0.118-0.089,0.19
									c0,0.006-0.001,0.013-0.001,0.019c-0.004,0.072,0.022,0.144,0.071,0.198c0.049,0.054,0.117,0.086,0.19,0.089
									c0.64,0.031,2.223,0.107,2.863,0.137c0.073,0.004,0.144-0.022,0.198-0.071c0.054-0.049,0.086-0.117,0.089-0.19
									C148.719,204.669,148.719,204.663,148.719,204.657z"/>
							</g>
						</g>
					</g>
				</g>
				<g>
					<path style="fill:#403A4A;" d="M156.955,105.542l0.309-2.435c0,0,5.964-1.296,7.666,4.83
						C162.612,105.925,159.311,105.138,156.955,105.542z"/>
					<path style="fill:#403A4A;" d="M141.641,106.383l-0.566-2.793c0,0-5.439-1.449-7.391,3.927
						C136.08,105.89,139.109,105.077,141.641,106.383z"/>
					<path style="fill:#FFFFFF;" d="M144.042,128.758c3.803-0.411,7.566-1.308,11.281-2.779c0,0,1.482,6.833-4.163,7.947
						C145.514,135.041,144.042,128.758,144.042,128.758L144.042,128.758z"/>
					<path style="fill:#DD5F5F;" d="M143.414,109.044c0,0,3.753,6.817-1.445,12.869c-0.228,0.264-0.359,0.599-0.37,0.947
						c-0.033,0.994,0.133,3.021,1.815,4.118c0,0-3.417-0.802-3.327-4.319c0.007-0.439,0.206-0.854,0.545-1.134
						C141.952,120.337,145.57,116.34,143.414,109.044z"/>
					<ellipse style="fill:#203A5A;" cx="138.613" cy="115.251" rx="1.472" ry="1.742"/>
					<ellipse style="fill:#203A5A;" cx="158.426" cy="116.269" rx="1.472" ry="1.742"/>
				</g>
			</g>
			<g>
				<path style="fill:#FB9C8D;" d="M102.161,118.49c0,0,5.633-15.395,4.496-16.623c-2.871-3.102-8.071,7.531-10.174,11.854
					c0,0-6.351,2.598-6.928,11.105"/>
				<path style="fill:#DD5F5F;" d="M106.203,102.224c0.008,0.052,0.034,0.239,0.03,0.393c-0.009,0.352-0.071,0.81-0.172,1.344
					c-0.854,4.542-4.44,14.332-4.44,14.332c-0.109,0.298,0.045,0.628,0.343,0.737c0.298,0.109,0.628-0.044,0.737-0.342
					c0,0,3.625-9.916,4.49-14.514c0.166-0.878,0.228-1.58,0.171-2.014c-0.042-0.32-0.154-0.544-0.283-0.683
					c-1.082-1.17-2.443-0.923-3.868,0.334c-2.637,2.327-5.627,8.338-7.154,11.473c-1.134,0.543-6.535,3.541-7.076,11.503
					c-0.022,0.317,0.218,0.592,0.535,0.613c0.316,0.022,0.591-0.218,0.612-0.535c0.551-8.113,6.573-10.612,6.573-10.612
					c0.131-0.053,0.237-0.153,0.299-0.28c1.448-2.976,4.369-9.004,6.971-11.299C104.802,101.941,105.567,101.577,106.203,102.224z"
					/>
			</g>
		</g>
	</g>
</g>
</svg>
